<svg xmlns="http://www.w3.org/2000/svg" viewBox="0 0 100 100" role="img" aria-label="Food Planner">
  <rect width="100" height="100" rx="22" fill="#FFFBF6"/>
  <g transform="rotate(-26 50 52)">
    <path
      d="M50 16 C36 30 30 48 34 64 C38 74 44 80 50 82 C56 80 62 74 66 64 C70 48 64 30 50 16Z"
      fill="#2D6A4F"
    />
    <path
      d="M50 26 C47 40 45 54 50 72"
      fill="none"
      stroke="#1B4332"
      stroke-width="2.2"
      stroke-linecap="round"
      opacity="0.45"
    />
    <path
      d="M50 34 C43 44 41 52 45 60"
      fill="none"
      stroke="#40916C"
      stroke-width="1.6"
      stroke-linecap="round"
      opacity="0.55"
    />
  </g>
  <g transform="rotate(26 50 52)">
    <path
      d="M50 16 C36 30 30 48 34 64 C38 74 44 80 50 82 C56 80 62 74 66 64 C70 48 64 30 50 16Z"
      fill="#2D6A4F"
    />
    <path
      d="M50 26 C47 40 45 54 50 72"
      fill="none"
      stroke="#1B4332"
      stroke-width="2.2"
      stroke-linecap="round"
      opacity="0.45"
    />
    <path
      d="M50 34 C43 44 41 52 45 60"
      fill="none"
      stroke="#40916C"
      stroke-width="1.6"
      stroke-linecap="round"
      opacity="0.55"
    />
  </g>
  <path
    d="M50 72 C50 78 50 84 50 88"
    fill="none"
    stroke="#1B4332"
    stroke-width="2.4"
    stroke-linecap="round"
    opacity="0.5"
  />
</svg>
